<svg width="60" height="60" viewBox="0 0 60 60" fill="none" xmlns="http://www.w3.org/2000/svg">
<rect x="0.5" y="0.5" width="59" height="59" rx="9.5" fill="#F0F0F0"/>
<path d="M13.25 46.25V46.75H13.75H46.25H46.75V46.25V44.125C46.75 43.3528 46.519 42.6232 46.0745 41.9447C45.6356 41.2748 45.0818 40.7631 44.4111 40.4278L44.4111 40.4278L44.4055 40.425C41.7135 39.1211 39.2379 38.2198 36.981 37.7301C34.7361 37.243 32.4088 37 30 37C27.5911 37 25.2437 37.243 22.9584 37.7297C20.6588 38.2194 18.1818 39.1211 15.5292 40.4264L15.5264 40.4278C14.8529 40.7645 14.3069 41.2796 13.8877 41.9551C13.467 42.6329 13.25 43.3589 13.25 44.125V46.25ZM30 29.4375C27.3665 29.4375 25.249 28.6043 23.6036 26.9589C21.9582 25.3135 21.125 23.196 21.125 20.5625C21.125 17.929 21.9582 15.8115 23.6036 14.1661C25.249 12.5207 27.3665 11.6875 30 11.6875C32.6335 11.6875 34.7511 12.5207 36.3964 14.1661C38.0418 15.8115 38.875 17.929 38.875 20.5625C38.875 23.196 38.0418 25.3135 36.3964 26.9589C34.7511 28.6043 32.6335 29.4375 30 29.4375ZM10.5 49.5V44.125C10.5 42.6286 10.8726 41.3787 11.5964 40.3502C12.3369 39.2979 13.2884 38.5012 14.4579 37.9548C17.2249 36.716 19.872 35.7898 22.3997 35.1733C24.9243 34.5575 27.4574 34.25 30 34.25C32.5412 34.25 35.0623 34.5676 37.5644 35.2034C40.0754 35.8414 42.7156 36.7587 45.4853 37.9573C46.6964 38.505 47.6657 39.3017 48.4036 40.3502C49.1274 41.3787 49.5 42.6286 49.5 44.125V49.5H10.5ZM30 26.6875C31.7457 26.6875 33.2204 26.1117 34.3848 24.9473C35.5492 23.7829 36.125 22.3082 36.125 20.5625C36.125 18.8168 35.5492 17.3421 34.3848 16.1777C33.2204 15.0133 31.7457 14.4375 30 14.4375C28.2543 14.4375 26.7796 15.0133 25.6152 16.1777C24.4508 17.3421 23.875 18.8168 23.875 20.5625C23.875 22.3082 24.4508 23.7829 25.6152 24.9473C26.7796 26.1117 28.2543 26.6875 30 26.6875Z" fill="#1E1E1E" stroke="#F0F0F0"/>
<rect x="0.5" y="0.5" width="59" height="59" rx="9.5" stroke="#FF1F1F"/>
</svg>
