<svg width="26" height="26" viewBox="0 0 26 26" fill="none" xmlns="http://www.w3.org/2000/svg">
<path d="M23.9722 25.5L14.8403 16.3681C14.1458 16.9699 13.3356 17.4387 12.4097 17.7743C11.4838 18.11 10.5 18.2778 9.45833 18.2778C6.95833 18.2778 4.84028 17.4097 3.10417 15.6736C1.36806 13.9375 0.5 11.8426 0.5 9.38889C0.5 6.93518 1.36806 4.84028 3.10417 3.10417C4.84028 1.36806 6.94676 0.5 9.42361 0.5C11.8773 0.5 13.9664 1.36806 15.691 3.10417C17.4155 4.84028 18.2778 6.93518 18.2778 9.38889C18.2778 10.3843 18.1157 11.3449 17.7917 12.2708C17.4676 13.1968 16.9815 14.0648 16.3333 14.875L25.5 23.9722L23.9722 25.5ZM9.42361 16.1944C11.2986 16.1944 12.8958 15.5289 14.2153 14.1979C15.5347 12.8669 16.1944 11.2639 16.1944 9.38889C16.1944 7.51389 15.5347 5.91088 14.2153 4.57986C12.8958 3.24884 11.2986 2.58333 9.42361 2.58333C7.52546 2.58333 5.91088 3.24884 4.57986 4.57986C3.24884 5.91088 2.58333 7.51389 2.58333 9.38889C2.58333 11.2639 3.24884 12.8669 4.57986 14.1979C5.91088 15.5289 7.52546 16.1944 9.42361 16.1944Z" fill="#1E1E1E"/>
</svg>
